<?xml version="1.0" encoding="UTF-8" standalone="no"?>
<svg
   xmlns:dc="http://purl.org/dc/elements/1.1/"
   xmlns:cc="http://creativecommons.org/ns#"
   xmlns:rdf="http://www.w3.org/1999/02/22-rdf-syntax-ns#"
   xmlns:svg="http://www.w3.org/2000/svg"
   xmlns="http://www.w3.org/2000/svg"
   xmlns:sodipodi="http://sodipodi.sourceforge.net/DTD/sodipodi-0.dtd"
   xmlns:inkscape="http://www.inkscape.org/namespaces/inkscape"
   sodipodi:docname="chat.svg"
   inkscape:version="1.0 (4035a4f, 2020-05-01)"
   id="svg8"
   version="1.1"
   viewBox="0 0 210 297"
   height="297mm"
   width="210mm">
  <defs
     id="defs2" />
  <sodipodi:namedview
     inkscape:window-maximized="0"
     inkscape:window-y="0"
     inkscape:window-x="0"
     inkscape:window-height="878"
     inkscape:window-width="1252"
     showgrid="false"
     inkscape:document-rotation="0"
     inkscape:current-layer="layer1"
     inkscape:document-units="mm"
     inkscape:cy="560"
     inkscape:cx="-2.8571429"
     inkscape:zoom="0.35"
     inkscape:pageshadow="2"
     inkscape:pageopacity="0.0"
     borderopacity="1.0"
     bordercolor="#666666"
     pagecolor="#ffffff"
     id="base" />
  <metadata
     id="metadata5">
    <rdf:RDF>
      <cc:Work
         rdf:about="">
        <dc:format>image/svg+xml</dc:format>
        <dc:type
           rdf:resource="http://purl.org/dc/dcmitype/StillImage" />
        <dc:title></dc:title>
      </cc:Work>
    </rdf:RDF>
  </metadata>
  <g
     id="layer1"
     inkscape:groupmode="layer"
     inkscape:label="Layer 1">
    <g
       style="fill:#ffffff"
       transform="matrix(-0.26458333,0,0,0.26458333,166.02735,59.24645)"
       id="g71">
      <g
         style="fill:#ffffff"
         id="g14">
	<g
   style="fill:#ffffff"
   id="g12">
		<path
   style="fill:#ffffff"
   d="M 426.667,0.002 H 51.2 C 22.923,0.002 0,22.925 0,51.202 v 273.067 c 0,28.277 22.923,51.2 51.2,51.2 h 60.587 l -9.284,83.456 c -1.035,9.369 5.721,17.802 15.09,18.837 4.838,0.534 9.674,-1.023 13.292,-4.279 l 108.919,-98.014 h 186.863 c 28.277,0 51.2,-22.923 51.2,-51.2 V 51.202 c 0,-28.277 -22.923,-51.2 -51.2,-51.2 z m 17.066,324.267 c 0,9.426 -7.641,17.067 -17.067,17.067 H 233.25 c -4.217,10e-4 -8.284,1.564 -11.418,4.386 l -80.452,72.414 6.434,-57.839 c 1.046,-9.367 -5.699,-17.809 -15.067,-18.856 -0.63,-0.07 -1.263,-0.106 -1.897,-0.105 H 51.2 c -9.426,0 -17.067,-7.641 -17.067,-17.067 V 51.202 c 0,-9.426 7.641,-17.067 17.067,-17.067 h 375.467 c 9.426,0 17.067,7.641 17.067,17.067 v 273.067 z"
   id="path10" />

	</g>

</g>
      <g
         style="fill:#ffffff"
         id="g16">
</g>
      <g
         style="fill:#ffffff"
         id="g18">
</g>
      <g
         style="fill:#ffffff"
         id="g20">
</g>
      <g
         style="fill:#ffffff"
         id="g22">
</g>
      <g
         style="fill:#ffffff"
         id="g24">
</g>
      <g
         style="fill:#ffffff"
         id="g26">
</g>
      <g
         style="fill:#ffffff"
         id="g28">
</g>
      <g
         style="fill:#ffffff"
         id="g30">
</g>
      <g
         style="fill:#ffffff"
         id="g32">
</g>
      <g
         style="fill:#ffffff"
         id="g34">
</g>
      <g
         style="fill:#ffffff"
         id="g36">
</g>
      <g
         style="fill:#ffffff"
         id="g38">
</g>
      <g
         style="fill:#ffffff"
         id="g40">
</g>
      <g
         style="fill:#ffffff"
         id="g42">
</g>
      <g
         style="fill:#ffffff"
         id="g44">
</g>
    </g>
  </g>
</svg>
